<svg width="88.000000" height="24.000000" viewBox="0 0 88 24" fill="none" xmlns="http://www.w3.org/2000/svg" xmlns:xlink="http://www.w3.org/1999/xlink">
	<desc>
			Created with Pixso.
	</desc>
	<defs/>
	<path id="Vector" d="M11.57 23.57C17.96 23.57 23.14 18.39 23.14 12C23.14 5.6 17.96 0.42 11.57 0.42C5.18 0.42 0 5.6 0 12C0 18.39 5.18 23.57 11.57 23.57Z" fill="#000000" fill-opacity="1.000000" fill-rule="evenodd"/>
	<path id="Vector" d="M11.57 19.25C11.57 19.25 17.35 16.24 17.35 12C17.35 8.8 14.76 6.21 11.57 6.21C8.37 6.21 5.78 8.8 5.78 12C5.78 16.24 11.57 19.25 11.57 19.25Z" fill="#FFFFFF" fill-opacity="1.000000" fill-rule="evenodd"/>
	<path id="Vector" d="M14.29 12C14.29 13.5 13.07 14.72 11.57 14.72C10.06 14.72 8.84 13.5 8.84 12C8.84 10.49 10.06 9.27 11.57 9.27C13.07 9.27 14.29 10.49 14.29 12Z" fill="#000000" fill-opacity="1.000000" fill-rule="evenodd"/>
	<mask id="mask2_10554" mask-type="alpha" maskUnits="userSpaceOnUse" x="3.148438" y="1.532471" width="84.843750" height="21.459473">
		<path id="Vector" d="M3.14 1.53L87.99 1.53L87.99 22.99L3.14 22.99L3.14 1.53Z" fill="#000000" fill-opacity="1.000000" fill-rule="evenodd"/>
	</mask>
	<g mask="url(#mask2_10554)">
		<path id="Vector" d="M31.05 12.15C31.05 7.82 33.62 4.97 37.51 4.97C41.39 4.97 43.87 7.72 43.87 11.99C43.87 16.26 41.41 19.08 37.54 19.08C33.67 19.08 31.05 16.44 31.05 12.15L31.05 12.15ZM40.78 12.1C40.78 9.27 39.6 7.63 37.52 7.63C36.38 7.63 35.5 8.09 34.92 8.93C34.41 9.69 34.15 10.74 34.15 12.1C34.15 14.79 35.41 16.42 37.51 16.42C38.61 16.42 39.44 16 40 15.21C40.51 14.49 40.78 13.44 40.78 12.1L40.78 12.1Z" fill="#090A0B" fill-opacity="1.000000" fill-rule="evenodd"/>
		<path id="Vector" d="M53.56 18.83L51.79 11.99L50.12 18.83L47.06 18.83L44.21 8.72L47.18 8.72L48.8 15.56L50.59 8.72L53.07 8.72L54.99 15.65L56.55 8.72L59.28 8.72L56.48 18.83L53.56 18.83L53.56 18.83Z" fill="#090A0B" fill-opacity="1.000000" fill-rule="evenodd"/>
		<path id="Vector" d="M60.06 8.72L62.92 8.72L62.92 10.53L62.97 10.53C63.73 9.16 64.98 8.51 66.32 8.51C68.41 8.51 69.71 9.83 69.71 12.66L69.71 18.83L66.79 18.83L66.79 13.47C66.79 11.64 66.3 10.83 65.05 10.83C63.8 10.83 62.98 11.78 62.98 13.54L62.98 18.83L60.06 18.83L60.06 8.72L60.06 8.72Z" fill="#090A0B" fill-opacity="1.000000" fill-rule="evenodd"/>
		<path id="Vector" d="M70.7 13.87C70.7 10.71 72.85 8.49 75.82 8.49C77.72 8.49 79.14 9.3 79.92 10.81C80.43 11.82 80.64 13.01 80.6 14.44L73.62 14.44C73.75 15.9 74.62 16.76 75.99 16.76C77.12 16.76 77.88 16.25 78.25 15.24L80.72 15.97C79.99 17.97 78.25 19.08 75.91 19.08C72.67 19.08 70.7 17.07 70.7 13.87L70.7 13.87ZM75.82 10.76C74.64 10.76 73.87 11.45 73.66 12.66L77.7 12.66C77.67 12.27 77.58 11.97 77.45 11.69C77.19 11.09 76.58 10.76 75.82 10.76Z" fill="#090A0B" fill-opacity="1.000000" fill-rule="evenodd"/>
		<path id="Vector" d="M87.41 8.51C86.13 8.51 85.18 9.18 84.58 10.39L84.53 10.39L84.53 8.72L81.63 8.72L81.63 18.83L84.55 18.83L84.55 13.43C84.55 11.48 85.11 11.04 86.13 11.04C87.15 11.04 87.9 11.28 87.9 11.28L87.9 8.51L87.42 8.51L87.41 8.51Z" fill="#090A0B" fill-opacity="1.000000" fill-rule="evenodd"/>
	</g>
</svg>
